M48
;GenerationSoftware,Autodesk,EAGLE,9.6.2*%
;CreationDate,2023-05-13T20:45:54Z*%
FMAT,2
ICI,OFF
METRIC,TZ,000.000
T6C0.350
T5C0.900
T4C1.000
T3C1.016
T2C1.600
T1C3.200
%
G90
M71
T1
X27410Y59370
X17250Y59370
T2
X15580Y56320
X29080Y56320
T3
X40060Y58310
X43820Y5310
X41280Y5310
X38740Y5310
X36200Y5310
X23250Y5310
X20710Y5310
X67000Y54780
X18170Y5310
X15630Y5310
X67000Y19220
X67000Y21760
X67000Y24300
X67000Y26840
X67000Y29380
X67000Y31920
X67000Y34460
X67000Y37000
X67000Y39540
X67000Y42080
X67000Y44620
X67000Y47160
X67000Y49700
X67000Y52240
X50220Y58310
X47680Y58310
X3000Y54780
X3000Y52240
X3000Y49700
X3000Y47160
X3000Y44620
X3000Y42080
X3000Y39540
X3000Y37000
X3000Y34460
X3000Y31920
X3000Y29380
X45140Y58310
X3000Y24300
X3000Y21760
X3000Y19220
X52760Y58310
X42600Y58310
X3000Y26840
X11470Y38540
X11470Y36000
X11470Y33460
X11470Y30920
X11470Y28380
X11470Y25840
T4
X57000Y29190
X57000Y36810
X57000Y34270
X57000Y26650
X57000Y31730
T5
X24235Y53020
X22965Y50480
X21695Y53020
X20425Y50480
T6
X38000Y18000
X28000Y12000
X28000Y14000
X36000Y18000
X34000Y18000
X32000Y18000
X30000Y18000
X28000Y18000
X39000Y48000
X34000Y48000
X13000Y46000
X13000Y48000
X28000Y30000
X28000Y34000
X35000Y21000
X30000Y24000
X21000Y39000
X28000Y16000
X19000Y39000
X32000Y12000
X34000Y12000
X36000Y12000
X38000Y12000
X40000Y14000
X42000Y16000
X42000Y18000
X40000Y18000
X30000Y12000
M30