G04 EAGLE Gerber RS-274X export*
G75*
%MOMM*%
%FSLAX34Y34*%
%LPD*%
%IN*%
%IPPOS*%
%AMOC8*
5,1,8,0,0,1.08239X$1,22.5*%
G01*
%ADD10C,0.254000*%


D10*
X0Y34142D02*
X130Y31166D01*
X519Y28213D01*
X1163Y25305D01*
X2059Y22465D01*
X3199Y19713D01*
X4574Y17071D01*
X6175Y14559D01*
X7988Y12196D01*
X10000Y10000D01*
X12196Y7988D01*
X14559Y6175D01*
X17071Y4574D01*
X19713Y3199D01*
X22465Y2059D01*
X25305Y1163D01*
X28213Y519D01*
X31166Y130D01*
X34142Y0D01*
X665858Y0D01*
X668834Y130D01*
X671787Y519D01*
X674695Y1163D01*
X677535Y2059D01*
X680287Y3199D01*
X682929Y4574D01*
X685441Y6175D01*
X687804Y7988D01*
X690000Y10000D01*
X692012Y12196D01*
X693825Y14559D01*
X695426Y17071D01*
X696801Y19713D01*
X697941Y22465D01*
X698837Y25305D01*
X699481Y28213D01*
X699870Y31166D01*
X700000Y34142D01*
X700000Y665858D01*
X699870Y668834D01*
X699481Y671787D01*
X698837Y674695D01*
X697941Y677535D01*
X696801Y680287D01*
X695426Y682929D01*
X693825Y685441D01*
X692012Y687804D01*
X690000Y690000D01*
X687804Y692012D01*
X685441Y693825D01*
X682929Y695426D01*
X680287Y696801D01*
X677535Y697941D01*
X674695Y698837D01*
X671787Y699481D01*
X668834Y699870D01*
X665858Y700000D01*
X34142Y700000D01*
X31166Y699870D01*
X28213Y699481D01*
X25305Y698837D01*
X22465Y697941D01*
X19713Y696801D01*
X17071Y695426D01*
X14559Y693825D01*
X12196Y692012D01*
X10000Y690000D01*
X7988Y687804D01*
X6175Y685441D01*
X4574Y682929D01*
X3199Y680287D01*
X2059Y677535D01*
X1163Y674695D01*
X519Y671787D01*
X130Y668834D01*
X0Y665858D01*
X0Y34142D01*
X65000Y649464D02*
X65000Y650536D01*
X64924Y651604D01*
X64771Y652665D01*
X64543Y653712D01*
X64241Y654740D01*
X63867Y655744D01*
X63422Y656719D01*
X62908Y657659D01*
X62329Y658560D01*
X61687Y659418D01*
X60985Y660228D01*
X60228Y660985D01*
X59418Y661687D01*
X58560Y662329D01*
X57659Y662908D01*
X56719Y663422D01*
X55744Y663867D01*
X54740Y664241D01*
X53712Y664543D01*
X52665Y664771D01*
X51604Y664924D01*
X50536Y665000D01*
X49464Y665000D01*
X48396Y664924D01*
X47335Y664771D01*
X46288Y664543D01*
X45260Y664241D01*
X44256Y663867D01*
X43281Y663422D01*
X42341Y662908D01*
X41440Y662329D01*
X40582Y661687D01*
X39772Y660985D01*
X39015Y660228D01*
X38313Y659418D01*
X37671Y658560D01*
X37092Y657659D01*
X36578Y656719D01*
X36133Y655744D01*
X35759Y654740D01*
X35457Y653712D01*
X35229Y652665D01*
X35076Y651604D01*
X35000Y650536D01*
X35000Y649464D01*
X35076Y648396D01*
X35229Y647335D01*
X35457Y646288D01*
X35759Y645260D01*
X36133Y644256D01*
X36578Y643281D01*
X37092Y642341D01*
X37671Y641440D01*
X38313Y640582D01*
X39015Y639772D01*
X39772Y639015D01*
X40582Y638313D01*
X41440Y637671D01*
X42341Y637092D01*
X43281Y636578D01*
X44256Y636133D01*
X45260Y635759D01*
X46288Y635457D01*
X47335Y635229D01*
X48396Y635076D01*
X49464Y635000D01*
X50536Y635000D01*
X51604Y635076D01*
X52665Y635229D01*
X53712Y635457D01*
X54740Y635759D01*
X55744Y636133D01*
X56719Y636578D01*
X57659Y637092D01*
X58560Y637671D01*
X59418Y638313D01*
X60228Y639015D01*
X60985Y639772D01*
X61687Y640582D01*
X62329Y641440D01*
X62908Y642341D01*
X63422Y643281D01*
X63867Y644256D01*
X64241Y645260D01*
X64543Y646288D01*
X64771Y647335D01*
X64924Y648396D01*
X65000Y649464D01*
X665000Y649464D02*
X665000Y650536D01*
X664924Y651604D01*
X664771Y652665D01*
X664543Y653712D01*
X664241Y654740D01*
X663867Y655744D01*
X663422Y656719D01*
X662908Y657659D01*
X662329Y658560D01*
X661687Y659418D01*
X660985Y660228D01*
X660228Y660985D01*
X659418Y661687D01*
X658560Y662329D01*
X657659Y662908D01*
X656719Y663422D01*
X655744Y663867D01*
X654740Y664241D01*
X653712Y664543D01*
X652665Y664771D01*
X651604Y664924D01*
X650536Y665000D01*
X649464Y665000D01*
X648396Y664924D01*
X647335Y664771D01*
X646288Y664543D01*
X645260Y664241D01*
X644256Y663867D01*
X643281Y663422D01*
X642341Y662908D01*
X641440Y662329D01*
X640582Y661687D01*
X639772Y660985D01*
X639015Y660228D01*
X638313Y659418D01*
X637671Y658560D01*
X637092Y657659D01*
X636578Y656719D01*
X636133Y655744D01*
X635759Y654740D01*
X635457Y653712D01*
X635229Y652665D01*
X635076Y651604D01*
X635000Y650536D01*
X635000Y649464D01*
X635076Y648396D01*
X635229Y647335D01*
X635457Y646288D01*
X635759Y645260D01*
X636133Y644256D01*
X636578Y643281D01*
X637092Y642341D01*
X637671Y641440D01*
X638313Y640582D01*
X639015Y639772D01*
X639772Y639015D01*
X640582Y638313D01*
X641440Y637671D01*
X642341Y637092D01*
X643281Y636578D01*
X644256Y636133D01*
X645260Y635759D01*
X646288Y635457D01*
X647335Y635229D01*
X648396Y635076D01*
X649464Y635000D01*
X650536Y635000D01*
X651604Y635076D01*
X652665Y635229D01*
X653712Y635457D01*
X654740Y635759D01*
X655744Y636133D01*
X656719Y636578D01*
X657659Y637092D01*
X658560Y637671D01*
X659418Y638313D01*
X660228Y639015D01*
X660985Y639772D01*
X661687Y640582D01*
X662329Y641440D01*
X662908Y642341D01*
X663422Y643281D01*
X663867Y644256D01*
X664241Y645260D01*
X664543Y646288D01*
X664771Y647335D01*
X664924Y648396D01*
X665000Y649464D01*
X65000Y49464D02*
X65000Y50536D01*
X64924Y51604D01*
X64771Y52665D01*
X64543Y53712D01*
X64241Y54740D01*
X63867Y55744D01*
X63422Y56719D01*
X62908Y57659D01*
X62329Y58560D01*
X61687Y59418D01*
X60985Y60228D01*
X60228Y60985D01*
X59418Y61687D01*
X58560Y62329D01*
X57659Y62908D01*
X56719Y63422D01*
X55744Y63867D01*
X54740Y64241D01*
X53712Y64543D01*
X52665Y64771D01*
X51604Y64924D01*
X50536Y65000D01*
X49464Y65000D01*
X48396Y64924D01*
X47335Y64771D01*
X46288Y64543D01*
X45260Y64241D01*
X44256Y63867D01*
X43281Y63422D01*
X42341Y62908D01*
X41440Y62329D01*
X40582Y61687D01*
X39772Y60985D01*
X39015Y60228D01*
X38313Y59418D01*
X37671Y58560D01*
X37092Y57659D01*
X36578Y56719D01*
X36133Y55744D01*
X35759Y54740D01*
X35457Y53712D01*
X35229Y52665D01*
X35076Y51604D01*
X35000Y50536D01*
X35000Y49464D01*
X35076Y48396D01*
X35229Y47335D01*
X35457Y46288D01*
X35759Y45260D01*
X36133Y44256D01*
X36578Y43281D01*
X37092Y42341D01*
X37671Y41440D01*
X38313Y40582D01*
X39015Y39772D01*
X39772Y39015D01*
X40582Y38313D01*
X41440Y37671D01*
X42341Y37092D01*
X43281Y36578D01*
X44256Y36133D01*
X45260Y35759D01*
X46288Y35457D01*
X47335Y35229D01*
X48396Y35076D01*
X49464Y35000D01*
X50536Y35000D01*
X51604Y35076D01*
X52665Y35229D01*
X53712Y35457D01*
X54740Y35759D01*
X55744Y36133D01*
X56719Y36578D01*
X57659Y37092D01*
X58560Y37671D01*
X59418Y38313D01*
X60228Y39015D01*
X60985Y39772D01*
X61687Y40582D01*
X62329Y41440D01*
X62908Y42341D01*
X63422Y43281D01*
X63867Y44256D01*
X64241Y45260D01*
X64543Y46288D01*
X64771Y47335D01*
X64924Y48396D01*
X65000Y49464D01*
X665000Y49464D02*
X665000Y50536D01*
X664924Y51604D01*
X664771Y52665D01*
X664543Y53712D01*
X664241Y54740D01*
X663867Y55744D01*
X663422Y56719D01*
X662908Y57659D01*
X662329Y58560D01*
X661687Y59418D01*
X660985Y60228D01*
X660228Y60985D01*
X659418Y61687D01*
X658560Y62329D01*
X657659Y62908D01*
X656719Y63422D01*
X655744Y63867D01*
X654740Y64241D01*
X653712Y64543D01*
X652665Y64771D01*
X651604Y64924D01*
X650536Y65000D01*
X649464Y65000D01*
X648396Y64924D01*
X647335Y64771D01*
X646288Y64543D01*
X645260Y64241D01*
X644256Y63867D01*
X643281Y63422D01*
X642341Y62908D01*
X641440Y62329D01*
X640582Y61687D01*
X639772Y60985D01*
X639015Y60228D01*
X638313Y59418D01*
X637671Y58560D01*
X637092Y57659D01*
X636578Y56719D01*
X636133Y55744D01*
X635759Y54740D01*
X635457Y53712D01*
X635229Y52665D01*
X635076Y51604D01*
X635000Y50536D01*
X635000Y49464D01*
X635076Y48396D01*
X635229Y47335D01*
X635457Y46288D01*
X635759Y45260D01*
X636133Y44256D01*
X636578Y43281D01*
X637092Y42341D01*
X637671Y41440D01*
X638313Y40582D01*
X639015Y39772D01*
X639772Y39015D01*
X640582Y38313D01*
X641440Y37671D01*
X642341Y37092D01*
X643281Y36578D01*
X644256Y36133D01*
X645260Y35759D01*
X646288Y35457D01*
X647335Y35229D01*
X648396Y35076D01*
X649464Y35000D01*
X650536Y35000D01*
X651604Y35076D01*
X652665Y35229D01*
X653712Y35457D01*
X654740Y35759D01*
X655744Y36133D01*
X656719Y36578D01*
X657659Y37092D01*
X658560Y37671D01*
X659418Y38313D01*
X660228Y39015D01*
X660985Y39772D01*
X661687Y40582D01*
X662329Y41440D01*
X662908Y42341D01*
X663422Y43281D01*
X663867Y44256D01*
X664241Y45260D01*
X664543Y46288D01*
X664771Y47335D01*
X664924Y48396D01*
X665000Y49464D01*
X258100Y594224D02*
X258169Y595269D01*
X258305Y596308D01*
X258510Y597335D01*
X258781Y598347D01*
X259117Y599339D01*
X259518Y600307D01*
X259982Y601246D01*
X260506Y602154D01*
X261088Y603025D01*
X261725Y603856D01*
X262416Y604643D01*
X263157Y605384D01*
X263944Y606075D01*
X264775Y606713D01*
X265646Y607295D01*
X266554Y607818D01*
X267493Y608282D01*
X268461Y608683D01*
X269453Y609019D01*
X270465Y609290D01*
X271492Y609495D01*
X272531Y609632D01*
X273576Y609700D01*
X274624Y609700D01*
X275669Y609632D01*
X276708Y609495D01*
X277735Y609290D01*
X278747Y609019D01*
X279739Y608683D01*
X280707Y608282D01*
X281646Y607818D01*
X282554Y607295D01*
X283425Y606713D01*
X284256Y606075D01*
X285043Y605384D01*
X285784Y604643D01*
X286475Y603856D01*
X287113Y603025D01*
X287695Y602154D01*
X288218Y601246D01*
X288682Y600307D01*
X289083Y599339D01*
X289419Y598347D01*
X289690Y597335D01*
X289895Y596308D01*
X290032Y595269D01*
X290100Y594224D01*
X290100Y593176D01*
X290032Y592131D01*
X289895Y591092D01*
X289690Y590065D01*
X289419Y589053D01*
X289083Y588061D01*
X288682Y587093D01*
X288218Y586154D01*
X287695Y585246D01*
X287113Y584375D01*
X286475Y583544D01*
X285784Y582757D01*
X285043Y582016D01*
X284256Y581325D01*
X283425Y580688D01*
X282554Y580106D01*
X281646Y579582D01*
X280707Y579118D01*
X279739Y578717D01*
X278747Y578381D01*
X277735Y578110D01*
X276708Y577905D01*
X275669Y577769D01*
X274624Y577700D01*
X273576Y577700D01*
X272531Y577769D01*
X271492Y577905D01*
X270465Y578110D01*
X269453Y578381D01*
X268461Y578717D01*
X267493Y579118D01*
X266554Y579582D01*
X265646Y580106D01*
X264775Y580688D01*
X263944Y581325D01*
X263157Y582016D01*
X262416Y582757D01*
X261725Y583544D01*
X261088Y584375D01*
X260506Y585246D01*
X259982Y586154D01*
X259518Y587093D01*
X259117Y588061D01*
X258781Y589053D01*
X258510Y590065D01*
X258305Y591092D01*
X258169Y592131D01*
X258100Y593176D01*
X258100Y594224D01*
X156500Y594224D02*
X156569Y595269D01*
X156705Y596308D01*
X156910Y597335D01*
X157181Y598347D01*
X157517Y599339D01*
X157918Y600307D01*
X158382Y601246D01*
X158906Y602154D01*
X159488Y603025D01*
X160125Y603856D01*
X160816Y604643D01*
X161557Y605384D01*
X162344Y606075D01*
X163175Y606713D01*
X164046Y607295D01*
X164954Y607818D01*
X165893Y608282D01*
X166861Y608683D01*
X167853Y609019D01*
X168865Y609290D01*
X169892Y609495D01*
X170931Y609632D01*
X171976Y609700D01*
X173024Y609700D01*
X174069Y609632D01*
X175108Y609495D01*
X176135Y609290D01*
X177147Y609019D01*
X178139Y608683D01*
X179107Y608282D01*
X180046Y607818D01*
X180954Y607295D01*
X181825Y606713D01*
X182656Y606075D01*
X183443Y605384D01*
X184184Y604643D01*
X184875Y603856D01*
X185513Y603025D01*
X186095Y602154D01*
X186618Y601246D01*
X187082Y600307D01*
X187483Y599339D01*
X187819Y598347D01*
X188090Y597335D01*
X188295Y596308D01*
X188432Y595269D01*
X188500Y594224D01*
X188500Y593176D01*
X188432Y592131D01*
X188295Y591092D01*
X188090Y590065D01*
X187819Y589053D01*
X187483Y588061D01*
X187082Y587093D01*
X186618Y586154D01*
X186095Y585246D01*
X185513Y584375D01*
X184875Y583544D01*
X184184Y582757D01*
X183443Y582016D01*
X182656Y581325D01*
X181825Y580688D01*
X180954Y580106D01*
X180046Y579582D01*
X179107Y579118D01*
X178139Y578717D01*
X177147Y578381D01*
X176135Y578110D01*
X175108Y577905D01*
X174069Y577769D01*
X173024Y577700D01*
X171976Y577700D01*
X170931Y577769D01*
X169892Y577905D01*
X168865Y578110D01*
X167853Y578381D01*
X166861Y578717D01*
X165893Y579118D01*
X164954Y579582D01*
X164046Y580106D01*
X163175Y580688D01*
X162344Y581325D01*
X161557Y582016D01*
X160816Y582757D01*
X160125Y583544D01*
X159488Y584375D01*
X158906Y585246D01*
X158382Y586154D01*
X157918Y587093D01*
X157517Y588061D01*
X157181Y589053D01*
X156910Y590065D01*
X156705Y591092D01*
X156569Y592131D01*
X156500Y593176D01*
X156500Y594224D01*
M02*
