G04 EAGLE Gerber RS-274X export*
G75*
%MOMM*%
%FSLAX34Y34*%
%LPD*%
%INSilkscreen Top*%
%IPPOS*%
%AMOC8*
5,1,8,0,0,1.08239X$1,22.5*%
G01*
%ADD10C,0.152400*%
%ADD11C,0.127000*%
%ADD12C,0.203200*%
%ADD13C,0.101600*%


D10*
X100000Y440000D02*
X100000Y200000D01*
X550000Y200000D01*
X550000Y440000D01*
X100000Y440000D01*
X100762Y640762D02*
X100762Y657018D01*
X100762Y640762D02*
X107987Y640762D01*
X113758Y640762D02*
X118274Y640762D01*
X118407Y640764D01*
X118539Y640770D01*
X118671Y640780D01*
X118803Y640793D01*
X118935Y640811D01*
X119065Y640832D01*
X119196Y640857D01*
X119325Y640886D01*
X119453Y640919D01*
X119581Y640955D01*
X119707Y640995D01*
X119832Y641039D01*
X119956Y641087D01*
X120078Y641138D01*
X120199Y641193D01*
X120318Y641251D01*
X120436Y641313D01*
X120551Y641378D01*
X120665Y641447D01*
X120776Y641518D01*
X120885Y641594D01*
X120992Y641672D01*
X121097Y641753D01*
X121199Y641838D01*
X121299Y641925D01*
X121396Y642015D01*
X121491Y642108D01*
X121582Y642204D01*
X121671Y642302D01*
X121757Y642403D01*
X121840Y642507D01*
X121920Y642613D01*
X121996Y642721D01*
X122070Y642831D01*
X122140Y642944D01*
X122207Y643058D01*
X122270Y643175D01*
X122330Y643293D01*
X122387Y643413D01*
X122440Y643535D01*
X122489Y643658D01*
X122535Y643782D01*
X122577Y643908D01*
X122615Y644035D01*
X122650Y644163D01*
X122681Y644292D01*
X122708Y644421D01*
X122731Y644552D01*
X122751Y644683D01*
X122766Y644815D01*
X122778Y644947D01*
X122786Y645079D01*
X122790Y645212D01*
X122790Y645344D01*
X122786Y645477D01*
X122778Y645609D01*
X122766Y645741D01*
X122751Y645873D01*
X122731Y646004D01*
X122708Y646135D01*
X122681Y646264D01*
X122650Y646393D01*
X122615Y646521D01*
X122577Y646648D01*
X122535Y646774D01*
X122489Y646898D01*
X122440Y647021D01*
X122387Y647143D01*
X122330Y647263D01*
X122270Y647381D01*
X122207Y647498D01*
X122140Y647612D01*
X122070Y647725D01*
X121996Y647835D01*
X121920Y647943D01*
X121840Y648049D01*
X121757Y648153D01*
X121671Y648254D01*
X121582Y648352D01*
X121491Y648448D01*
X121396Y648541D01*
X121299Y648631D01*
X121199Y648718D01*
X121097Y648803D01*
X120992Y648884D01*
X120885Y648962D01*
X120776Y649038D01*
X120665Y649109D01*
X120551Y649178D01*
X120436Y649243D01*
X120318Y649305D01*
X120199Y649363D01*
X120078Y649418D01*
X119956Y649469D01*
X119832Y649517D01*
X119707Y649561D01*
X119581Y649601D01*
X119453Y649637D01*
X119325Y649670D01*
X119196Y649699D01*
X119065Y649724D01*
X118935Y649745D01*
X118803Y649763D01*
X118671Y649776D01*
X118539Y649786D01*
X118407Y649792D01*
X118274Y649794D01*
X119177Y657018D02*
X113758Y657018D01*
X119177Y657018D02*
X119296Y657016D01*
X119416Y657010D01*
X119535Y657000D01*
X119653Y656986D01*
X119772Y656969D01*
X119889Y656947D01*
X120006Y656922D01*
X120121Y656892D01*
X120236Y656859D01*
X120350Y656822D01*
X120462Y656782D01*
X120573Y656737D01*
X120682Y656689D01*
X120790Y656638D01*
X120896Y656583D01*
X121000Y656524D01*
X121102Y656462D01*
X121202Y656397D01*
X121300Y656328D01*
X121396Y656256D01*
X121489Y656181D01*
X121579Y656104D01*
X121667Y656023D01*
X121752Y655939D01*
X121834Y655852D01*
X121914Y655763D01*
X121990Y655671D01*
X122064Y655577D01*
X122134Y655480D01*
X122201Y655382D01*
X122265Y655281D01*
X122325Y655177D01*
X122382Y655072D01*
X122435Y654965D01*
X122485Y654857D01*
X122531Y654747D01*
X122573Y654635D01*
X122612Y654522D01*
X122647Y654408D01*
X122678Y654293D01*
X122706Y654176D01*
X122729Y654059D01*
X122749Y653942D01*
X122765Y653823D01*
X122777Y653704D01*
X122785Y653585D01*
X122789Y653466D01*
X122789Y653346D01*
X122785Y653227D01*
X122777Y653108D01*
X122765Y652989D01*
X122749Y652870D01*
X122729Y652753D01*
X122706Y652636D01*
X122678Y652519D01*
X122647Y652404D01*
X122612Y652290D01*
X122573Y652177D01*
X122531Y652065D01*
X122485Y651955D01*
X122435Y651847D01*
X122382Y651740D01*
X122325Y651635D01*
X122265Y651531D01*
X122201Y651430D01*
X122134Y651332D01*
X122064Y651235D01*
X121990Y651141D01*
X121914Y651049D01*
X121834Y650960D01*
X121752Y650873D01*
X121667Y650789D01*
X121579Y650708D01*
X121489Y650631D01*
X121396Y650556D01*
X121300Y650484D01*
X121202Y650415D01*
X121102Y650350D01*
X121000Y650288D01*
X120896Y650229D01*
X120790Y650174D01*
X120682Y650123D01*
X120573Y650075D01*
X120462Y650030D01*
X120350Y649990D01*
X120236Y649953D01*
X120121Y649920D01*
X120006Y649890D01*
X119889Y649865D01*
X119772Y649843D01*
X119653Y649826D01*
X119535Y649812D01*
X119416Y649802D01*
X119296Y649796D01*
X119177Y649794D01*
X119177Y649793D02*
X115564Y649793D01*
X138277Y640762D02*
X145502Y640762D01*
X138277Y640762D02*
X138277Y657018D01*
X145502Y657018D01*
X143696Y649793D02*
X138277Y649793D01*
X151933Y657018D02*
X151933Y640762D01*
X157352Y647987D02*
X151933Y657018D01*
X157352Y647987D02*
X162770Y657018D01*
X162770Y640762D01*
X169128Y640762D02*
X174546Y657018D01*
X179965Y640762D01*
X178610Y644826D02*
X170482Y644826D01*
X198896Y640762D02*
X199014Y640764D01*
X199132Y640770D01*
X199250Y640779D01*
X199367Y640793D01*
X199484Y640810D01*
X199601Y640831D01*
X199716Y640856D01*
X199831Y640885D01*
X199945Y640918D01*
X200057Y640954D01*
X200168Y640994D01*
X200278Y641037D01*
X200387Y641084D01*
X200494Y641134D01*
X200599Y641189D01*
X200702Y641246D01*
X200803Y641307D01*
X200903Y641371D01*
X201000Y641438D01*
X201095Y641508D01*
X201187Y641582D01*
X201278Y641658D01*
X201365Y641738D01*
X201450Y641820D01*
X201532Y641905D01*
X201612Y641992D01*
X201688Y642083D01*
X201762Y642175D01*
X201832Y642270D01*
X201899Y642367D01*
X201963Y642467D01*
X202024Y642568D01*
X202081Y642671D01*
X202136Y642776D01*
X202186Y642883D01*
X202233Y642992D01*
X202276Y643102D01*
X202316Y643213D01*
X202352Y643325D01*
X202385Y643439D01*
X202414Y643554D01*
X202439Y643669D01*
X202460Y643786D01*
X202477Y643903D01*
X202491Y644020D01*
X202500Y644138D01*
X202506Y644256D01*
X202508Y644374D01*
X198896Y640762D02*
X198713Y640764D01*
X198531Y640771D01*
X198349Y640782D01*
X198167Y640797D01*
X197985Y640817D01*
X197804Y640840D01*
X197624Y640869D01*
X197444Y640901D01*
X197265Y640938D01*
X197088Y640979D01*
X196911Y641025D01*
X196735Y641074D01*
X196561Y641128D01*
X196387Y641186D01*
X196216Y641248D01*
X196046Y641314D01*
X195877Y641385D01*
X195710Y641459D01*
X195545Y641537D01*
X195382Y641619D01*
X195221Y641705D01*
X195062Y641795D01*
X194905Y641889D01*
X194751Y641986D01*
X194599Y642087D01*
X194449Y642192D01*
X194302Y642300D01*
X194158Y642411D01*
X194016Y642526D01*
X193877Y642645D01*
X193741Y642767D01*
X193608Y642892D01*
X193478Y643020D01*
X193929Y653406D02*
X193931Y653524D01*
X193937Y653642D01*
X193946Y653760D01*
X193960Y653877D01*
X193977Y653994D01*
X193998Y654111D01*
X194023Y654226D01*
X194052Y654341D01*
X194085Y654455D01*
X194121Y654567D01*
X194161Y654678D01*
X194204Y654788D01*
X194251Y654897D01*
X194301Y655004D01*
X194356Y655109D01*
X194413Y655212D01*
X194474Y655313D01*
X194538Y655413D01*
X194605Y655510D01*
X194675Y655605D01*
X194749Y655697D01*
X194825Y655788D01*
X194905Y655875D01*
X194987Y655960D01*
X195072Y656042D01*
X195159Y656122D01*
X195250Y656198D01*
X195342Y656272D01*
X195437Y656342D01*
X195534Y656409D01*
X195634Y656473D01*
X195735Y656534D01*
X195838Y656592D01*
X195943Y656646D01*
X196050Y656696D01*
X196159Y656743D01*
X196269Y656787D01*
X196380Y656826D01*
X196493Y656862D01*
X196606Y656895D01*
X196721Y656924D01*
X196836Y656949D01*
X196953Y656970D01*
X197070Y656987D01*
X197187Y657001D01*
X197305Y657010D01*
X197423Y657016D01*
X197541Y657018D01*
X197702Y657016D01*
X197864Y657010D01*
X198025Y657001D01*
X198186Y656987D01*
X198346Y656970D01*
X198506Y656949D01*
X198666Y656924D01*
X198825Y656895D01*
X198983Y656863D01*
X199140Y656827D01*
X199296Y656787D01*
X199452Y656743D01*
X199606Y656695D01*
X199759Y656644D01*
X199911Y656590D01*
X200062Y656531D01*
X200211Y656470D01*
X200358Y656404D01*
X200504Y656335D01*
X200649Y656263D01*
X200791Y656187D01*
X200932Y656108D01*
X201071Y656026D01*
X201207Y655940D01*
X201342Y655851D01*
X201475Y655759D01*
X201605Y655663D01*
X195735Y650245D02*
X195634Y650307D01*
X195534Y650372D01*
X195437Y650441D01*
X195342Y650513D01*
X195249Y650587D01*
X195159Y650665D01*
X195071Y650746D01*
X194986Y650829D01*
X194904Y650915D01*
X194825Y651004D01*
X194748Y651095D01*
X194675Y651189D01*
X194604Y651285D01*
X194537Y651383D01*
X194473Y651483D01*
X194412Y651586D01*
X194355Y651690D01*
X194301Y651796D01*
X194251Y651904D01*
X194204Y652013D01*
X194160Y652124D01*
X194120Y652236D01*
X194084Y652350D01*
X194052Y652464D01*
X194023Y652580D01*
X193998Y652696D01*
X193977Y652813D01*
X193960Y652931D01*
X193946Y653049D01*
X193937Y653168D01*
X193931Y653287D01*
X193929Y653406D01*
X200703Y647535D02*
X200804Y647473D01*
X200904Y647408D01*
X201001Y647339D01*
X201096Y647267D01*
X201189Y647193D01*
X201279Y647115D01*
X201367Y647034D01*
X201452Y646951D01*
X201534Y646865D01*
X201613Y646776D01*
X201690Y646685D01*
X201763Y646591D01*
X201834Y646495D01*
X201901Y646397D01*
X201965Y646297D01*
X202026Y646194D01*
X202083Y646090D01*
X202137Y645984D01*
X202187Y645876D01*
X202234Y645767D01*
X202278Y645656D01*
X202318Y645544D01*
X202354Y645430D01*
X202386Y645316D01*
X202415Y645200D01*
X202440Y645084D01*
X202461Y644967D01*
X202478Y644849D01*
X202492Y644731D01*
X202501Y644612D01*
X202507Y644493D01*
X202509Y644374D01*
X200702Y647535D02*
X195735Y650245D01*
X215430Y649793D02*
X218140Y649793D01*
X218140Y640762D01*
X212721Y640762D01*
X212603Y640764D01*
X212485Y640770D01*
X212367Y640779D01*
X212250Y640793D01*
X212133Y640810D01*
X212016Y640831D01*
X211901Y640856D01*
X211786Y640885D01*
X211672Y640918D01*
X211560Y640954D01*
X211449Y640994D01*
X211339Y641037D01*
X211230Y641084D01*
X211123Y641134D01*
X211018Y641189D01*
X210915Y641246D01*
X210814Y641307D01*
X210714Y641371D01*
X210617Y641438D01*
X210522Y641508D01*
X210430Y641582D01*
X210339Y641658D01*
X210252Y641738D01*
X210167Y641820D01*
X210085Y641905D01*
X210005Y641992D01*
X209929Y642083D01*
X209855Y642175D01*
X209785Y642270D01*
X209718Y642367D01*
X209654Y642467D01*
X209593Y642568D01*
X209536Y642671D01*
X209481Y642776D01*
X209431Y642883D01*
X209384Y642992D01*
X209341Y643102D01*
X209301Y643213D01*
X209265Y643325D01*
X209232Y643439D01*
X209203Y643554D01*
X209178Y643669D01*
X209157Y643786D01*
X209140Y643903D01*
X209126Y644020D01*
X209117Y644138D01*
X209111Y644256D01*
X209109Y644374D01*
X209109Y653406D01*
X209111Y653524D01*
X209117Y653642D01*
X209126Y653760D01*
X209140Y653877D01*
X209157Y653994D01*
X209178Y654111D01*
X209203Y654226D01*
X209232Y654341D01*
X209265Y654455D01*
X209301Y654567D01*
X209341Y654678D01*
X209384Y654788D01*
X209431Y654897D01*
X209481Y655004D01*
X209535Y655109D01*
X209593Y655212D01*
X209654Y655313D01*
X209718Y655413D01*
X209785Y655510D01*
X209855Y655605D01*
X209929Y655697D01*
X210005Y655788D01*
X210085Y655875D01*
X210167Y655960D01*
X210252Y656042D01*
X210339Y656122D01*
X210430Y656198D01*
X210522Y656272D01*
X210617Y656342D01*
X210714Y656409D01*
X210814Y656473D01*
X210915Y656534D01*
X211018Y656591D01*
X211123Y656645D01*
X211230Y656696D01*
X211339Y656743D01*
X211449Y656786D01*
X211560Y656826D01*
X211672Y656862D01*
X211786Y656895D01*
X211901Y656924D01*
X212016Y656949D01*
X212133Y656970D01*
X212250Y656987D01*
X212367Y657001D01*
X212485Y657010D01*
X212603Y657016D01*
X212721Y657018D01*
X218140Y657018D01*
X228834Y640762D02*
X232446Y640762D01*
X228834Y640762D02*
X228716Y640764D01*
X228598Y640770D01*
X228480Y640779D01*
X228363Y640793D01*
X228246Y640810D01*
X228129Y640831D01*
X228014Y640856D01*
X227899Y640885D01*
X227785Y640918D01*
X227673Y640954D01*
X227562Y640994D01*
X227452Y641037D01*
X227343Y641084D01*
X227236Y641134D01*
X227131Y641189D01*
X227028Y641246D01*
X226927Y641307D01*
X226827Y641371D01*
X226730Y641438D01*
X226635Y641508D01*
X226543Y641582D01*
X226452Y641658D01*
X226365Y641738D01*
X226280Y641820D01*
X226198Y641905D01*
X226118Y641992D01*
X226042Y642083D01*
X225968Y642175D01*
X225898Y642270D01*
X225831Y642367D01*
X225767Y642467D01*
X225706Y642568D01*
X225649Y642671D01*
X225594Y642776D01*
X225544Y642883D01*
X225497Y642992D01*
X225454Y643102D01*
X225414Y643213D01*
X225378Y643325D01*
X225345Y643439D01*
X225316Y643554D01*
X225291Y643669D01*
X225270Y643786D01*
X225253Y643903D01*
X225239Y644020D01*
X225230Y644138D01*
X225224Y644256D01*
X225222Y644374D01*
X225222Y653406D01*
X225224Y653524D01*
X225230Y653642D01*
X225239Y653760D01*
X225253Y653877D01*
X225270Y653994D01*
X225291Y654111D01*
X225316Y654226D01*
X225345Y654341D01*
X225378Y654455D01*
X225414Y654567D01*
X225454Y654678D01*
X225497Y654788D01*
X225544Y654897D01*
X225594Y655004D01*
X225648Y655109D01*
X225706Y655212D01*
X225767Y655313D01*
X225831Y655413D01*
X225898Y655510D01*
X225968Y655605D01*
X226042Y655697D01*
X226118Y655788D01*
X226198Y655875D01*
X226280Y655960D01*
X226365Y656042D01*
X226452Y656122D01*
X226543Y656198D01*
X226635Y656272D01*
X226730Y656342D01*
X226827Y656409D01*
X226927Y656473D01*
X227028Y656534D01*
X227131Y656591D01*
X227236Y656645D01*
X227343Y656696D01*
X227452Y656743D01*
X227562Y656786D01*
X227673Y656826D01*
X227785Y656862D01*
X227899Y656895D01*
X228014Y656924D01*
X228129Y656949D01*
X228246Y656970D01*
X228363Y656987D01*
X228480Y657001D01*
X228598Y657010D01*
X228716Y657016D01*
X228834Y657018D01*
X232446Y657018D01*
X245721Y657018D02*
X251139Y640762D01*
X256558Y657018D01*
X262255Y653406D02*
X266770Y657018D01*
X266770Y640762D01*
X262255Y640762D02*
X271286Y640762D01*
X277261Y640762D02*
X277261Y641665D01*
X278164Y641665D01*
X278164Y640762D01*
X277261Y640762D01*
X284139Y648890D02*
X284143Y649210D01*
X284154Y649529D01*
X284173Y649849D01*
X284200Y650167D01*
X284234Y650485D01*
X284276Y650802D01*
X284326Y651118D01*
X284383Y651433D01*
X284447Y651746D01*
X284519Y652058D01*
X284598Y652368D01*
X284685Y652675D01*
X284779Y652981D01*
X284880Y653284D01*
X284989Y653585D01*
X285104Y653883D01*
X285227Y654179D01*
X285357Y654471D01*
X285494Y654760D01*
X285493Y654761D02*
X285532Y654869D01*
X285575Y654976D01*
X285621Y655081D01*
X285672Y655185D01*
X285725Y655287D01*
X285782Y655387D01*
X285843Y655485D01*
X285907Y655580D01*
X285974Y655674D01*
X286045Y655765D01*
X286118Y655854D01*
X286195Y655940D01*
X286274Y656023D01*
X286356Y656104D01*
X286441Y656182D01*
X286529Y656256D01*
X286619Y656328D01*
X286711Y656396D01*
X286806Y656462D01*
X286903Y656524D01*
X287002Y656582D01*
X287104Y656638D01*
X287206Y656689D01*
X287311Y656737D01*
X287417Y656782D01*
X287525Y656823D01*
X287634Y656860D01*
X287744Y656893D01*
X287856Y656922D01*
X287968Y656948D01*
X288081Y656970D01*
X288195Y656987D01*
X288309Y657001D01*
X288424Y657011D01*
X288539Y657017D01*
X288654Y657019D01*
X288654Y657018D02*
X288769Y657016D01*
X288884Y657010D01*
X288999Y657000D01*
X289113Y656986D01*
X289227Y656969D01*
X289340Y656947D01*
X289452Y656921D01*
X289564Y656892D01*
X289674Y656859D01*
X289783Y656822D01*
X289891Y656781D01*
X289997Y656736D01*
X290102Y656688D01*
X290204Y656637D01*
X290305Y656581D01*
X290405Y656523D01*
X290502Y656461D01*
X290596Y656396D01*
X290689Y656327D01*
X290779Y656255D01*
X290867Y656181D01*
X290952Y656103D01*
X291034Y656022D01*
X291113Y655939D01*
X291190Y655853D01*
X291263Y655764D01*
X291334Y655673D01*
X291401Y655579D01*
X291465Y655484D01*
X291526Y655386D01*
X291583Y655286D01*
X291636Y655184D01*
X291687Y655080D01*
X291733Y654975D01*
X291776Y654868D01*
X291815Y654760D01*
X291814Y654760D02*
X291951Y654471D01*
X292081Y654179D01*
X292204Y653883D01*
X292319Y653585D01*
X292428Y653284D01*
X292529Y652981D01*
X292623Y652675D01*
X292710Y652368D01*
X292789Y652058D01*
X292861Y651746D01*
X292925Y651433D01*
X292982Y651118D01*
X293032Y650802D01*
X293074Y650485D01*
X293108Y650167D01*
X293135Y649849D01*
X293154Y649529D01*
X293165Y649210D01*
X293169Y648890D01*
X284139Y648890D02*
X284143Y648570D01*
X284154Y648251D01*
X284173Y647931D01*
X284200Y647613D01*
X284234Y647295D01*
X284276Y646978D01*
X284326Y646662D01*
X284383Y646347D01*
X284447Y646034D01*
X284519Y645722D01*
X284598Y645412D01*
X284685Y645105D01*
X284779Y644799D01*
X284880Y644496D01*
X284989Y644195D01*
X285104Y643897D01*
X285227Y643601D01*
X285357Y643309D01*
X285494Y643020D01*
X285493Y643020D02*
X285532Y642912D01*
X285575Y642805D01*
X285621Y642700D01*
X285672Y642596D01*
X285725Y642494D01*
X285782Y642394D01*
X285843Y642296D01*
X285907Y642201D01*
X285974Y642107D01*
X286045Y642016D01*
X286118Y641927D01*
X286195Y641841D01*
X286274Y641758D01*
X286356Y641677D01*
X286441Y641599D01*
X286529Y641525D01*
X286619Y641453D01*
X286712Y641384D01*
X286806Y641319D01*
X286903Y641257D01*
X287003Y641199D01*
X287104Y641143D01*
X287206Y641092D01*
X287311Y641044D01*
X287417Y640999D01*
X287525Y640958D01*
X287634Y640921D01*
X287744Y640888D01*
X287856Y640859D01*
X287968Y640833D01*
X288081Y640811D01*
X288195Y640794D01*
X288309Y640780D01*
X288424Y640770D01*
X288539Y640764D01*
X288654Y640762D01*
X291814Y643020D02*
X291951Y643309D01*
X292081Y643601D01*
X292204Y643897D01*
X292319Y644195D01*
X292428Y644496D01*
X292529Y644799D01*
X292623Y645105D01*
X292710Y645412D01*
X292789Y645722D01*
X292861Y646034D01*
X292925Y646347D01*
X292982Y646662D01*
X293032Y646978D01*
X293074Y647295D01*
X293108Y647613D01*
X293135Y647931D01*
X293154Y648251D01*
X293165Y648570D01*
X293169Y648890D01*
X291815Y643020D02*
X291776Y642912D01*
X291733Y642805D01*
X291687Y642700D01*
X291636Y642596D01*
X291583Y642494D01*
X291526Y642394D01*
X291465Y642296D01*
X291401Y642201D01*
X291334Y642107D01*
X291263Y642016D01*
X291190Y641927D01*
X291113Y641841D01*
X291034Y641758D01*
X290952Y641677D01*
X290867Y641599D01*
X290779Y641525D01*
X290689Y641453D01*
X290596Y641384D01*
X290502Y641319D01*
X290405Y641257D01*
X290305Y641199D01*
X290204Y641143D01*
X290101Y641092D01*
X289997Y641044D01*
X289891Y640999D01*
X289783Y640958D01*
X289674Y640921D01*
X289564Y640888D01*
X289452Y640859D01*
X289340Y640833D01*
X289227Y640811D01*
X289113Y640794D01*
X288999Y640780D01*
X288884Y640770D01*
X288769Y640764D01*
X288654Y640762D01*
X285042Y644374D02*
X292267Y653406D01*
X42700Y249350D02*
X42700Y236650D01*
X36350Y230300D01*
X23650Y230300D01*
X17300Y236650D01*
X36350Y230300D02*
X42700Y223950D01*
X42700Y211250D01*
X36350Y204900D01*
X23650Y204900D01*
X17300Y211250D01*
X17300Y223950D01*
X23650Y230300D01*
X42700Y274750D02*
X36350Y281100D01*
X42700Y274750D02*
X42700Y262050D01*
X36350Y255700D01*
X23650Y255700D01*
X17300Y262050D01*
X17300Y274750D01*
X23650Y281100D01*
X36350Y255700D02*
X42700Y249350D01*
X23650Y255700D02*
X17300Y249350D01*
X17300Y236650D01*
X42700Y312850D02*
X42700Y325550D01*
X42700Y312850D02*
X36350Y306500D01*
X23650Y306500D01*
X17300Y312850D01*
X36350Y306500D02*
X42700Y300150D01*
X42700Y287450D01*
X36350Y281100D01*
X23650Y281100D01*
X17300Y287450D01*
X17300Y300150D01*
X23650Y306500D01*
X42700Y350950D02*
X36350Y357300D01*
X42700Y350950D02*
X42700Y338250D01*
X36350Y331900D01*
X23650Y331900D01*
X17300Y338250D01*
X17300Y350950D01*
X23650Y357300D01*
X36350Y331900D02*
X42700Y325550D01*
X23650Y331900D02*
X17300Y325550D01*
X17300Y312850D01*
X42700Y389050D02*
X42700Y401750D01*
X42700Y389050D02*
X36350Y382700D01*
X23650Y382700D01*
X17300Y389050D01*
X36350Y382700D02*
X42700Y376350D01*
X42700Y363650D01*
X36350Y357300D01*
X23650Y357300D01*
X17300Y363650D01*
X17300Y376350D01*
X23650Y382700D01*
X42700Y427150D02*
X36350Y433500D01*
X42700Y427150D02*
X42700Y414450D01*
X36350Y408100D01*
X23650Y408100D01*
X17300Y414450D01*
X17300Y427150D01*
X23650Y433500D01*
X36350Y408100D02*
X42700Y401750D01*
X23650Y408100D02*
X17300Y401750D01*
X17300Y389050D01*
X42700Y465250D02*
X42700Y477950D01*
X42700Y465250D02*
X36350Y458900D01*
X23650Y458900D01*
X17300Y465250D01*
X36350Y458900D02*
X42700Y452550D01*
X42700Y439850D01*
X36350Y433500D01*
X23650Y433500D01*
X17300Y439850D01*
X17300Y452550D01*
X23650Y458900D01*
X42700Y503350D02*
X36350Y509700D01*
X42700Y503350D02*
X42700Y490650D01*
X36350Y484300D01*
X23650Y484300D01*
X17300Y490650D01*
X17300Y503350D01*
X23650Y509700D01*
X36350Y484300D02*
X42700Y477950D01*
X23650Y484300D02*
X17300Y477950D01*
X17300Y465250D01*
X42700Y541450D02*
X42700Y554150D01*
X42700Y541450D02*
X36350Y535100D01*
X23650Y535100D01*
X17300Y541450D01*
X36350Y535100D02*
X42700Y528750D01*
X42700Y516050D01*
X36350Y509700D01*
X23650Y509700D01*
X17300Y516050D01*
X17300Y528750D01*
X23650Y535100D01*
X23650Y560500D02*
X36350Y560500D01*
X42700Y554150D01*
X23650Y560500D02*
X17300Y554150D01*
X17300Y541450D01*
X36350Y204900D02*
X42700Y198550D01*
X42700Y185850D01*
X36350Y179500D01*
X23650Y179500D01*
X17300Y185850D01*
X17300Y198550D01*
X23650Y204900D01*
D11*
X48923Y537438D02*
X57813Y537438D01*
X57913Y537436D01*
X58012Y537430D01*
X58112Y537420D01*
X58210Y537407D01*
X58309Y537389D01*
X58406Y537368D01*
X58502Y537343D01*
X58598Y537314D01*
X58692Y537281D01*
X58785Y537245D01*
X58876Y537205D01*
X58966Y537161D01*
X59054Y537114D01*
X59140Y537064D01*
X59224Y537010D01*
X59306Y536953D01*
X59385Y536893D01*
X59463Y536829D01*
X59537Y536763D01*
X59609Y536694D01*
X59678Y536622D01*
X59744Y536548D01*
X59808Y536470D01*
X59868Y536391D01*
X59925Y536309D01*
X59979Y536225D01*
X60029Y536139D01*
X60076Y536051D01*
X60120Y535961D01*
X60160Y535870D01*
X60196Y535777D01*
X60229Y535683D01*
X60258Y535587D01*
X60283Y535491D01*
X60304Y535394D01*
X60322Y535295D01*
X60335Y535197D01*
X60345Y535097D01*
X60351Y534998D01*
X60353Y534898D01*
X60353Y533628D01*
X60353Y543419D02*
X48923Y543419D01*
X48923Y546594D01*
X48925Y546705D01*
X48931Y546815D01*
X48940Y546926D01*
X48954Y547036D01*
X48971Y547145D01*
X48992Y547254D01*
X49017Y547362D01*
X49046Y547469D01*
X49078Y547575D01*
X49114Y547680D01*
X49154Y547783D01*
X49197Y547885D01*
X49244Y547986D01*
X49295Y548085D01*
X49348Y548182D01*
X49405Y548276D01*
X49466Y548369D01*
X49529Y548460D01*
X49596Y548549D01*
X49666Y548635D01*
X49739Y548718D01*
X49814Y548800D01*
X49892Y548878D01*
X49974Y548953D01*
X50057Y549026D01*
X50143Y549096D01*
X50232Y549163D01*
X50323Y549226D01*
X50416Y549287D01*
X50510Y549344D01*
X50607Y549397D01*
X50706Y549448D01*
X50807Y549495D01*
X50909Y549538D01*
X51012Y549578D01*
X51117Y549614D01*
X51223Y549646D01*
X51330Y549675D01*
X51438Y549700D01*
X51547Y549721D01*
X51656Y549738D01*
X51766Y549752D01*
X51877Y549761D01*
X51987Y549767D01*
X52098Y549769D01*
X52209Y549767D01*
X52319Y549761D01*
X52430Y549752D01*
X52540Y549738D01*
X52649Y549721D01*
X52758Y549700D01*
X52866Y549675D01*
X52973Y549646D01*
X53079Y549614D01*
X53184Y549578D01*
X53287Y549538D01*
X53389Y549495D01*
X53490Y549448D01*
X53589Y549397D01*
X53686Y549344D01*
X53780Y549287D01*
X53873Y549226D01*
X53964Y549163D01*
X54053Y549096D01*
X54139Y549026D01*
X54222Y548953D01*
X54304Y548878D01*
X54382Y548800D01*
X54457Y548718D01*
X54530Y548635D01*
X54600Y548549D01*
X54667Y548460D01*
X54730Y548369D01*
X54791Y548276D01*
X54848Y548182D01*
X54901Y548085D01*
X54952Y547986D01*
X54999Y547885D01*
X55042Y547783D01*
X55082Y547680D01*
X55118Y547575D01*
X55150Y547469D01*
X55179Y547362D01*
X55204Y547254D01*
X55225Y547145D01*
X55242Y547036D01*
X55256Y546926D01*
X55265Y546815D01*
X55271Y546705D01*
X55273Y546594D01*
X55273Y543419D01*
X51463Y554277D02*
X48923Y557452D01*
X60353Y557452D01*
X60353Y554277D02*
X60353Y560627D01*
D10*
X682700Y249350D02*
X682700Y236650D01*
X676350Y230300D01*
X663650Y230300D01*
X657300Y236650D01*
X676350Y230300D02*
X682700Y223950D01*
X682700Y211250D01*
X676350Y204900D01*
X663650Y204900D01*
X657300Y211250D01*
X657300Y223950D01*
X663650Y230300D01*
X682700Y274750D02*
X676350Y281100D01*
X682700Y274750D02*
X682700Y262050D01*
X676350Y255700D01*
X663650Y255700D01*
X657300Y262050D01*
X657300Y274750D01*
X663650Y281100D01*
X676350Y255700D02*
X682700Y249350D01*
X663650Y255700D02*
X657300Y249350D01*
X657300Y236650D01*
X682700Y312850D02*
X682700Y325550D01*
X682700Y312850D02*
X676350Y306500D01*
X663650Y306500D01*
X657300Y312850D01*
X676350Y306500D02*
X682700Y300150D01*
X682700Y287450D01*
X676350Y281100D01*
X663650Y281100D01*
X657300Y287450D01*
X657300Y300150D01*
X663650Y306500D01*
X682700Y350950D02*
X676350Y357300D01*
X682700Y350950D02*
X682700Y338250D01*
X676350Y331900D01*
X663650Y331900D01*
X657300Y338250D01*
X657300Y350950D01*
X663650Y357300D01*
X676350Y331900D02*
X682700Y325550D01*
X663650Y331900D02*
X657300Y325550D01*
X657300Y312850D01*
X682700Y389050D02*
X682700Y401750D01*
X682700Y389050D02*
X676350Y382700D01*
X663650Y382700D01*
X657300Y389050D01*
X676350Y382700D02*
X682700Y376350D01*
X682700Y363650D01*
X676350Y357300D01*
X663650Y357300D01*
X657300Y363650D01*
X657300Y376350D01*
X663650Y382700D01*
X682700Y427150D02*
X676350Y433500D01*
X682700Y427150D02*
X682700Y414450D01*
X676350Y408100D01*
X663650Y408100D01*
X657300Y414450D01*
X657300Y427150D01*
X663650Y433500D01*
X676350Y408100D02*
X682700Y401750D01*
X663650Y408100D02*
X657300Y401750D01*
X657300Y389050D01*
X682700Y465250D02*
X682700Y477950D01*
X682700Y465250D02*
X676350Y458900D01*
X663650Y458900D01*
X657300Y465250D01*
X676350Y458900D02*
X682700Y452550D01*
X682700Y439850D01*
X676350Y433500D01*
X663650Y433500D01*
X657300Y439850D01*
X657300Y452550D01*
X663650Y458900D01*
X682700Y503350D02*
X676350Y509700D01*
X682700Y503350D02*
X682700Y490650D01*
X676350Y484300D01*
X663650Y484300D01*
X657300Y490650D01*
X657300Y503350D01*
X663650Y509700D01*
X676350Y484300D02*
X682700Y477950D01*
X663650Y484300D02*
X657300Y477950D01*
X657300Y465250D01*
X682700Y541450D02*
X682700Y554150D01*
X682700Y541450D02*
X676350Y535100D01*
X663650Y535100D01*
X657300Y541450D01*
X676350Y535100D02*
X682700Y528750D01*
X682700Y516050D01*
X676350Y509700D01*
X663650Y509700D01*
X657300Y516050D01*
X657300Y528750D01*
X663650Y535100D01*
X663650Y560500D02*
X676350Y560500D01*
X682700Y554150D01*
X663650Y560500D02*
X657300Y554150D01*
X657300Y541450D01*
X676350Y204900D02*
X682700Y198550D01*
X682700Y185850D01*
X676350Y179500D01*
X663650Y179500D01*
X657300Y185850D01*
X657300Y198550D01*
X663650Y204900D01*
D11*
X688923Y537438D02*
X697813Y537438D01*
X697913Y537436D01*
X698012Y537430D01*
X698112Y537420D01*
X698210Y537407D01*
X698309Y537389D01*
X698406Y537368D01*
X698502Y537343D01*
X698598Y537314D01*
X698692Y537281D01*
X698785Y537245D01*
X698876Y537205D01*
X698966Y537161D01*
X699054Y537114D01*
X699140Y537064D01*
X699224Y537010D01*
X699306Y536953D01*
X699385Y536893D01*
X699463Y536829D01*
X699537Y536763D01*
X699609Y536694D01*
X699678Y536622D01*
X699744Y536548D01*
X699808Y536470D01*
X699868Y536391D01*
X699925Y536309D01*
X699979Y536225D01*
X700029Y536139D01*
X700076Y536051D01*
X700120Y535961D01*
X700160Y535870D01*
X700196Y535777D01*
X700229Y535683D01*
X700258Y535587D01*
X700283Y535491D01*
X700304Y535394D01*
X700322Y535295D01*
X700335Y535197D01*
X700345Y535097D01*
X700351Y534998D01*
X700353Y534898D01*
X700353Y533628D01*
X700353Y543419D02*
X688923Y543419D01*
X688923Y546594D01*
X688925Y546705D01*
X688931Y546815D01*
X688940Y546926D01*
X688954Y547036D01*
X688971Y547145D01*
X688992Y547254D01*
X689017Y547362D01*
X689046Y547469D01*
X689078Y547575D01*
X689114Y547680D01*
X689154Y547783D01*
X689197Y547885D01*
X689244Y547986D01*
X689295Y548085D01*
X689348Y548182D01*
X689405Y548276D01*
X689466Y548369D01*
X689529Y548460D01*
X689596Y548549D01*
X689666Y548635D01*
X689739Y548718D01*
X689814Y548800D01*
X689892Y548878D01*
X689974Y548953D01*
X690057Y549026D01*
X690143Y549096D01*
X690232Y549163D01*
X690323Y549226D01*
X690416Y549287D01*
X690511Y549344D01*
X690607Y549397D01*
X690706Y549448D01*
X690807Y549495D01*
X690909Y549538D01*
X691012Y549578D01*
X691117Y549614D01*
X691223Y549646D01*
X691330Y549675D01*
X691438Y549700D01*
X691547Y549721D01*
X691656Y549738D01*
X691766Y549752D01*
X691877Y549761D01*
X691987Y549767D01*
X692098Y549769D01*
X692209Y549767D01*
X692319Y549761D01*
X692430Y549752D01*
X692540Y549738D01*
X692649Y549721D01*
X692758Y549700D01*
X692866Y549675D01*
X692973Y549646D01*
X693079Y549614D01*
X693184Y549578D01*
X693287Y549538D01*
X693389Y549495D01*
X693490Y549448D01*
X693589Y549397D01*
X693686Y549344D01*
X693780Y549287D01*
X693873Y549226D01*
X693964Y549163D01*
X694053Y549096D01*
X694139Y549026D01*
X694222Y548953D01*
X694304Y548878D01*
X694382Y548800D01*
X694457Y548718D01*
X694530Y548635D01*
X694600Y548549D01*
X694667Y548460D01*
X694730Y548369D01*
X694791Y548276D01*
X694848Y548182D01*
X694901Y548085D01*
X694952Y547986D01*
X694999Y547885D01*
X695042Y547783D01*
X695082Y547680D01*
X695118Y547575D01*
X695150Y547469D01*
X695179Y547362D01*
X695204Y547254D01*
X695225Y547145D01*
X695242Y547036D01*
X695256Y546926D01*
X695265Y546815D01*
X695271Y546705D01*
X695273Y546594D01*
X695273Y543419D01*
X688923Y557770D02*
X688925Y557874D01*
X688931Y557979D01*
X688940Y558083D01*
X688953Y558186D01*
X688971Y558289D01*
X688991Y558391D01*
X689016Y558493D01*
X689044Y558593D01*
X689076Y558693D01*
X689112Y558791D01*
X689151Y558888D01*
X689193Y558983D01*
X689239Y559077D01*
X689289Y559169D01*
X689341Y559259D01*
X689397Y559347D01*
X689457Y559433D01*
X689519Y559517D01*
X689584Y559598D01*
X689652Y559677D01*
X689724Y559754D01*
X689797Y559827D01*
X689874Y559899D01*
X689953Y559967D01*
X690034Y560032D01*
X690118Y560094D01*
X690204Y560154D01*
X690292Y560210D01*
X690382Y560262D01*
X690474Y560312D01*
X690568Y560358D01*
X690663Y560400D01*
X690760Y560439D01*
X690858Y560475D01*
X690958Y560507D01*
X691058Y560535D01*
X691160Y560560D01*
X691262Y560580D01*
X691365Y560598D01*
X691468Y560611D01*
X691572Y560620D01*
X691677Y560626D01*
X691781Y560628D01*
X688923Y557770D02*
X688925Y557652D01*
X688931Y557533D01*
X688940Y557415D01*
X688953Y557298D01*
X688971Y557181D01*
X688991Y557064D01*
X689016Y556948D01*
X689044Y556833D01*
X689077Y556720D01*
X689112Y556607D01*
X689152Y556495D01*
X689194Y556385D01*
X689241Y556276D01*
X689291Y556168D01*
X689344Y556063D01*
X689401Y555959D01*
X689461Y555857D01*
X689524Y555757D01*
X689591Y555659D01*
X689660Y555563D01*
X689733Y555470D01*
X689809Y555379D01*
X689887Y555290D01*
X689969Y555204D01*
X690053Y555121D01*
X690139Y555040D01*
X690229Y554963D01*
X690320Y554888D01*
X690414Y554816D01*
X690511Y554747D01*
X690609Y554682D01*
X690710Y554619D01*
X690813Y554560D01*
X690917Y554504D01*
X691023Y554452D01*
X691131Y554403D01*
X691240Y554358D01*
X691351Y554316D01*
X691463Y554278D01*
X694003Y559675D02*
X693928Y559751D01*
X693849Y559826D01*
X693768Y559897D01*
X693684Y559966D01*
X693598Y560031D01*
X693510Y560093D01*
X693420Y560153D01*
X693328Y560209D01*
X693233Y560262D01*
X693137Y560311D01*
X693039Y560357D01*
X692940Y560400D01*
X692839Y560439D01*
X692737Y560474D01*
X692634Y560506D01*
X692530Y560534D01*
X692425Y560559D01*
X692318Y560580D01*
X692212Y560597D01*
X692105Y560610D01*
X691997Y560619D01*
X691889Y560625D01*
X691781Y560627D01*
X694003Y559675D02*
X700353Y554277D01*
X700353Y560627D01*
D10*
X200750Y65800D02*
X194400Y59450D01*
X200750Y65800D02*
X213450Y65800D01*
X219800Y59450D01*
X219800Y46750D01*
X213450Y40400D01*
X200750Y40400D01*
X194400Y46750D01*
X162650Y65800D02*
X149950Y65800D01*
X162650Y65800D02*
X169000Y59450D01*
X169000Y46750D01*
X162650Y40400D01*
X169000Y59450D02*
X175350Y65800D01*
X188050Y65800D01*
X194400Y59450D01*
X194400Y46750D01*
X188050Y40400D01*
X175350Y40400D01*
X169000Y46750D01*
X143600Y46750D02*
X143600Y59450D01*
X149950Y65800D01*
X143600Y46750D02*
X149950Y40400D01*
X162650Y40400D01*
X226150Y65800D02*
X238850Y65800D01*
X245200Y59450D01*
X245200Y46750D01*
X238850Y40400D01*
X219800Y59450D02*
X226150Y65800D01*
X219800Y46750D02*
X226150Y40400D01*
X238850Y40400D01*
D11*
X147283Y74563D02*
X147283Y83453D01*
X147283Y74563D02*
X147281Y74463D01*
X147275Y74364D01*
X147265Y74264D01*
X147252Y74166D01*
X147234Y74067D01*
X147213Y73970D01*
X147188Y73874D01*
X147159Y73778D01*
X147126Y73684D01*
X147090Y73591D01*
X147050Y73500D01*
X147006Y73410D01*
X146959Y73322D01*
X146909Y73236D01*
X146855Y73152D01*
X146798Y73070D01*
X146738Y72991D01*
X146674Y72913D01*
X146608Y72839D01*
X146539Y72767D01*
X146467Y72698D01*
X146393Y72632D01*
X146315Y72568D01*
X146236Y72508D01*
X146154Y72451D01*
X146070Y72397D01*
X145984Y72347D01*
X145896Y72300D01*
X145806Y72256D01*
X145715Y72216D01*
X145622Y72180D01*
X145528Y72147D01*
X145432Y72118D01*
X145336Y72093D01*
X145239Y72072D01*
X145140Y72054D01*
X145042Y72041D01*
X144942Y72031D01*
X144843Y72025D01*
X144743Y72023D01*
X143473Y72023D01*
X153263Y72023D02*
X153263Y83453D01*
X156438Y83453D01*
X156549Y83451D01*
X156659Y83445D01*
X156770Y83436D01*
X156880Y83422D01*
X156989Y83405D01*
X157098Y83384D01*
X157206Y83359D01*
X157313Y83330D01*
X157419Y83298D01*
X157524Y83262D01*
X157627Y83222D01*
X157729Y83179D01*
X157830Y83132D01*
X157929Y83081D01*
X158026Y83028D01*
X158120Y82971D01*
X158213Y82910D01*
X158304Y82847D01*
X158393Y82780D01*
X158479Y82710D01*
X158562Y82637D01*
X158644Y82562D01*
X158722Y82484D01*
X158797Y82402D01*
X158870Y82319D01*
X158940Y82233D01*
X159007Y82144D01*
X159070Y82053D01*
X159131Y81960D01*
X159188Y81865D01*
X159241Y81769D01*
X159292Y81670D01*
X159339Y81569D01*
X159382Y81467D01*
X159422Y81364D01*
X159458Y81259D01*
X159490Y81153D01*
X159519Y81046D01*
X159544Y80938D01*
X159565Y80829D01*
X159582Y80720D01*
X159596Y80610D01*
X159605Y80499D01*
X159611Y80389D01*
X159613Y80278D01*
X159611Y80167D01*
X159605Y80057D01*
X159596Y79946D01*
X159582Y79836D01*
X159565Y79727D01*
X159544Y79618D01*
X159519Y79510D01*
X159490Y79403D01*
X159458Y79297D01*
X159422Y79192D01*
X159382Y79089D01*
X159339Y78987D01*
X159292Y78886D01*
X159241Y78787D01*
X159188Y78690D01*
X159131Y78596D01*
X159070Y78503D01*
X159007Y78412D01*
X158940Y78323D01*
X158870Y78237D01*
X158797Y78154D01*
X158722Y78072D01*
X158644Y77994D01*
X158562Y77919D01*
X158479Y77846D01*
X158393Y77776D01*
X158304Y77709D01*
X158213Y77646D01*
X158120Y77585D01*
X158025Y77528D01*
X157929Y77475D01*
X157830Y77424D01*
X157729Y77377D01*
X157627Y77334D01*
X157524Y77294D01*
X157419Y77258D01*
X157313Y77226D01*
X157206Y77197D01*
X157098Y77172D01*
X156989Y77151D01*
X156880Y77134D01*
X156770Y77120D01*
X156659Y77111D01*
X156549Y77105D01*
X156438Y77103D01*
X153263Y77103D01*
X164122Y72023D02*
X167297Y72023D01*
X167408Y72025D01*
X167518Y72031D01*
X167629Y72040D01*
X167739Y72054D01*
X167848Y72071D01*
X167957Y72092D01*
X168065Y72117D01*
X168172Y72146D01*
X168278Y72178D01*
X168383Y72214D01*
X168486Y72254D01*
X168588Y72297D01*
X168689Y72344D01*
X168788Y72395D01*
X168884Y72448D01*
X168979Y72505D01*
X169072Y72566D01*
X169163Y72629D01*
X169252Y72696D01*
X169338Y72766D01*
X169421Y72839D01*
X169503Y72914D01*
X169581Y72992D01*
X169656Y73074D01*
X169729Y73157D01*
X169799Y73243D01*
X169866Y73332D01*
X169929Y73423D01*
X169990Y73516D01*
X170047Y73610D01*
X170100Y73707D01*
X170151Y73806D01*
X170198Y73907D01*
X170241Y74009D01*
X170281Y74112D01*
X170317Y74217D01*
X170349Y74323D01*
X170378Y74430D01*
X170403Y74538D01*
X170424Y74647D01*
X170441Y74756D01*
X170455Y74866D01*
X170464Y74977D01*
X170470Y75087D01*
X170472Y75198D01*
X170470Y75309D01*
X170464Y75419D01*
X170455Y75530D01*
X170441Y75640D01*
X170424Y75749D01*
X170403Y75858D01*
X170378Y75966D01*
X170349Y76073D01*
X170317Y76179D01*
X170281Y76284D01*
X170241Y76387D01*
X170198Y76489D01*
X170151Y76590D01*
X170100Y76689D01*
X170047Y76785D01*
X169990Y76880D01*
X169929Y76973D01*
X169866Y77064D01*
X169799Y77153D01*
X169729Y77239D01*
X169656Y77322D01*
X169581Y77404D01*
X169503Y77482D01*
X169421Y77557D01*
X169338Y77630D01*
X169252Y77700D01*
X169163Y77767D01*
X169072Y77830D01*
X168979Y77891D01*
X168885Y77948D01*
X168788Y78001D01*
X168689Y78052D01*
X168588Y78099D01*
X168486Y78142D01*
X168383Y78182D01*
X168278Y78218D01*
X168172Y78250D01*
X168065Y78279D01*
X167957Y78304D01*
X167848Y78325D01*
X167739Y78342D01*
X167629Y78356D01*
X167518Y78365D01*
X167408Y78371D01*
X167297Y78373D01*
X167932Y83453D02*
X164122Y83453D01*
X167932Y83453D02*
X168032Y83451D01*
X168131Y83445D01*
X168231Y83435D01*
X168329Y83422D01*
X168428Y83404D01*
X168525Y83383D01*
X168621Y83358D01*
X168717Y83329D01*
X168811Y83296D01*
X168904Y83260D01*
X168995Y83220D01*
X169085Y83176D01*
X169173Y83129D01*
X169259Y83079D01*
X169343Y83025D01*
X169425Y82968D01*
X169504Y82908D01*
X169582Y82844D01*
X169656Y82778D01*
X169728Y82709D01*
X169797Y82637D01*
X169863Y82563D01*
X169927Y82485D01*
X169987Y82406D01*
X170044Y82324D01*
X170098Y82240D01*
X170148Y82154D01*
X170195Y82066D01*
X170239Y81976D01*
X170279Y81885D01*
X170315Y81792D01*
X170348Y81698D01*
X170377Y81602D01*
X170402Y81506D01*
X170423Y81409D01*
X170441Y81310D01*
X170454Y81212D01*
X170464Y81112D01*
X170470Y81013D01*
X170472Y80913D01*
X170470Y80813D01*
X170464Y80714D01*
X170454Y80614D01*
X170441Y80516D01*
X170423Y80417D01*
X170402Y80320D01*
X170377Y80224D01*
X170348Y80128D01*
X170315Y80034D01*
X170279Y79941D01*
X170239Y79850D01*
X170195Y79760D01*
X170148Y79672D01*
X170098Y79586D01*
X170044Y79502D01*
X169987Y79420D01*
X169927Y79341D01*
X169863Y79263D01*
X169797Y79189D01*
X169728Y79117D01*
X169656Y79048D01*
X169582Y78982D01*
X169504Y78918D01*
X169425Y78858D01*
X169343Y78801D01*
X169259Y78747D01*
X169173Y78697D01*
X169085Y78650D01*
X168995Y78606D01*
X168904Y78566D01*
X168811Y78530D01*
X168717Y78497D01*
X168621Y78468D01*
X168525Y78443D01*
X168428Y78422D01*
X168329Y78404D01*
X168231Y78391D01*
X168131Y78381D01*
X168032Y78375D01*
X167932Y78373D01*
X165392Y78373D01*
D10*
X400100Y59450D02*
X406450Y65800D01*
X419150Y65800D01*
X425500Y59450D01*
X425500Y46750D01*
X419150Y40400D01*
X406450Y40400D01*
X400100Y46750D01*
X368350Y65800D02*
X355650Y65800D01*
X368350Y65800D02*
X374700Y59450D01*
X374700Y46750D01*
X368350Y40400D01*
X374700Y59450D02*
X381050Y65800D01*
X393750Y65800D01*
X400100Y59450D01*
X400100Y46750D01*
X393750Y40400D01*
X381050Y40400D01*
X374700Y46750D01*
X349300Y46750D02*
X349300Y59450D01*
X355650Y65800D01*
X349300Y46750D02*
X355650Y40400D01*
X368350Y40400D01*
X431850Y65800D02*
X444550Y65800D01*
X450900Y59450D01*
X450900Y46750D01*
X444550Y40400D01*
X425500Y59450D02*
X431850Y65800D01*
X425500Y46750D02*
X431850Y40400D01*
X444550Y40400D01*
D11*
X352983Y74563D02*
X352983Y83453D01*
X352983Y74563D02*
X352981Y74463D01*
X352975Y74364D01*
X352965Y74264D01*
X352952Y74166D01*
X352934Y74067D01*
X352913Y73970D01*
X352888Y73874D01*
X352859Y73778D01*
X352826Y73684D01*
X352790Y73591D01*
X352750Y73500D01*
X352706Y73410D01*
X352659Y73322D01*
X352609Y73236D01*
X352555Y73152D01*
X352498Y73070D01*
X352438Y72991D01*
X352374Y72913D01*
X352308Y72839D01*
X352239Y72767D01*
X352167Y72698D01*
X352093Y72632D01*
X352015Y72568D01*
X351936Y72508D01*
X351854Y72451D01*
X351770Y72397D01*
X351684Y72347D01*
X351596Y72300D01*
X351506Y72256D01*
X351415Y72216D01*
X351322Y72180D01*
X351228Y72147D01*
X351132Y72118D01*
X351036Y72093D01*
X350939Y72072D01*
X350840Y72054D01*
X350742Y72041D01*
X350642Y72031D01*
X350543Y72025D01*
X350443Y72023D01*
X349173Y72023D01*
X358963Y72023D02*
X358963Y83453D01*
X362138Y83453D01*
X362249Y83451D01*
X362359Y83445D01*
X362470Y83436D01*
X362580Y83422D01*
X362689Y83405D01*
X362798Y83384D01*
X362906Y83359D01*
X363013Y83330D01*
X363119Y83298D01*
X363224Y83262D01*
X363327Y83222D01*
X363429Y83179D01*
X363530Y83132D01*
X363629Y83081D01*
X363726Y83028D01*
X363820Y82971D01*
X363913Y82910D01*
X364004Y82847D01*
X364093Y82780D01*
X364179Y82710D01*
X364262Y82637D01*
X364344Y82562D01*
X364422Y82484D01*
X364497Y82402D01*
X364570Y82319D01*
X364640Y82233D01*
X364707Y82144D01*
X364770Y82053D01*
X364831Y81960D01*
X364888Y81865D01*
X364941Y81769D01*
X364992Y81670D01*
X365039Y81569D01*
X365082Y81467D01*
X365122Y81364D01*
X365158Y81259D01*
X365190Y81153D01*
X365219Y81046D01*
X365244Y80938D01*
X365265Y80829D01*
X365282Y80720D01*
X365296Y80610D01*
X365305Y80499D01*
X365311Y80389D01*
X365313Y80278D01*
X365311Y80167D01*
X365305Y80057D01*
X365296Y79946D01*
X365282Y79836D01*
X365265Y79727D01*
X365244Y79618D01*
X365219Y79510D01*
X365190Y79403D01*
X365158Y79297D01*
X365122Y79192D01*
X365082Y79089D01*
X365039Y78987D01*
X364992Y78886D01*
X364941Y78787D01*
X364888Y78690D01*
X364831Y78596D01*
X364770Y78503D01*
X364707Y78412D01*
X364640Y78323D01*
X364570Y78237D01*
X364497Y78154D01*
X364422Y78072D01*
X364344Y77994D01*
X364262Y77919D01*
X364179Y77846D01*
X364093Y77776D01*
X364004Y77709D01*
X363913Y77646D01*
X363820Y77585D01*
X363726Y77528D01*
X363629Y77475D01*
X363530Y77424D01*
X363429Y77377D01*
X363327Y77334D01*
X363224Y77294D01*
X363119Y77258D01*
X363013Y77226D01*
X362906Y77197D01*
X362798Y77172D01*
X362689Y77151D01*
X362580Y77134D01*
X362470Y77120D01*
X362359Y77111D01*
X362249Y77105D01*
X362138Y77103D01*
X358963Y77103D01*
X369822Y74563D02*
X372362Y83453D01*
X369822Y74563D02*
X376172Y74563D01*
X374267Y77103D02*
X374267Y72023D01*
D10*
X470450Y595800D02*
X483150Y595800D01*
X489500Y589450D01*
X489500Y576750D01*
X483150Y570400D01*
X489500Y589450D02*
X495850Y595800D01*
X508550Y595800D01*
X514900Y589450D01*
X514900Y576750D01*
X508550Y570400D01*
X495850Y570400D01*
X489500Y576750D01*
X445050Y595800D02*
X438700Y589450D01*
X445050Y595800D02*
X457750Y595800D01*
X464100Y589450D01*
X464100Y576750D01*
X457750Y570400D01*
X445050Y570400D01*
X438700Y576750D01*
X464100Y589450D02*
X470450Y595800D01*
X464100Y576750D02*
X470450Y570400D01*
X483150Y570400D01*
X406950Y595800D02*
X394250Y595800D01*
X406950Y595800D02*
X413300Y589450D01*
X413300Y576750D01*
X406950Y570400D01*
X413300Y589450D02*
X419650Y595800D01*
X432350Y595800D01*
X438700Y589450D01*
X438700Y576750D01*
X432350Y570400D01*
X419650Y570400D01*
X413300Y576750D01*
X387900Y576750D02*
X387900Y589450D01*
X394250Y595800D01*
X387900Y576750D02*
X394250Y570400D01*
X406950Y570400D01*
X521250Y595800D02*
X533950Y595800D01*
X540300Y589450D01*
X540300Y576750D01*
X533950Y570400D01*
X514900Y589450D02*
X521250Y595800D01*
X514900Y576750D02*
X521250Y570400D01*
X533950Y570400D01*
D11*
X391583Y604563D02*
X391583Y613453D01*
X391583Y604563D02*
X391581Y604463D01*
X391575Y604364D01*
X391565Y604264D01*
X391552Y604166D01*
X391534Y604067D01*
X391513Y603970D01*
X391488Y603874D01*
X391459Y603778D01*
X391426Y603684D01*
X391390Y603591D01*
X391350Y603500D01*
X391306Y603410D01*
X391259Y603322D01*
X391209Y603236D01*
X391155Y603152D01*
X391098Y603070D01*
X391038Y602991D01*
X390974Y602913D01*
X390908Y602839D01*
X390839Y602767D01*
X390767Y602698D01*
X390693Y602632D01*
X390615Y602568D01*
X390536Y602508D01*
X390454Y602451D01*
X390370Y602397D01*
X390284Y602347D01*
X390196Y602300D01*
X390106Y602256D01*
X390015Y602216D01*
X389922Y602180D01*
X389828Y602147D01*
X389732Y602118D01*
X389636Y602093D01*
X389539Y602072D01*
X389440Y602054D01*
X389342Y602041D01*
X389242Y602031D01*
X389143Y602025D01*
X389043Y602023D01*
X387773Y602023D01*
X397563Y602023D02*
X397563Y613453D01*
X400738Y613453D01*
X400849Y613451D01*
X400959Y613445D01*
X401070Y613436D01*
X401180Y613422D01*
X401289Y613405D01*
X401398Y613384D01*
X401506Y613359D01*
X401613Y613330D01*
X401719Y613298D01*
X401824Y613262D01*
X401927Y613222D01*
X402029Y613179D01*
X402130Y613132D01*
X402229Y613081D01*
X402326Y613028D01*
X402420Y612971D01*
X402513Y612910D01*
X402604Y612847D01*
X402693Y612780D01*
X402779Y612710D01*
X402862Y612637D01*
X402944Y612562D01*
X403022Y612484D01*
X403097Y612402D01*
X403170Y612319D01*
X403240Y612233D01*
X403307Y612144D01*
X403370Y612053D01*
X403431Y611960D01*
X403488Y611865D01*
X403541Y611769D01*
X403592Y611670D01*
X403639Y611569D01*
X403682Y611467D01*
X403722Y611364D01*
X403758Y611259D01*
X403790Y611153D01*
X403819Y611046D01*
X403844Y610938D01*
X403865Y610829D01*
X403882Y610720D01*
X403896Y610610D01*
X403905Y610499D01*
X403911Y610389D01*
X403913Y610278D01*
X403911Y610167D01*
X403905Y610057D01*
X403896Y609946D01*
X403882Y609836D01*
X403865Y609727D01*
X403844Y609618D01*
X403819Y609510D01*
X403790Y609403D01*
X403758Y609297D01*
X403722Y609192D01*
X403682Y609089D01*
X403639Y608987D01*
X403592Y608886D01*
X403541Y608787D01*
X403488Y608691D01*
X403431Y608596D01*
X403370Y608503D01*
X403307Y608412D01*
X403240Y608323D01*
X403170Y608237D01*
X403097Y608154D01*
X403022Y608072D01*
X402944Y607994D01*
X402862Y607919D01*
X402779Y607846D01*
X402693Y607776D01*
X402604Y607709D01*
X402513Y607646D01*
X402420Y607585D01*
X402326Y607528D01*
X402229Y607475D01*
X402130Y607424D01*
X402029Y607377D01*
X401927Y607334D01*
X401824Y607294D01*
X401719Y607258D01*
X401613Y607226D01*
X401506Y607197D01*
X401398Y607172D01*
X401289Y607151D01*
X401180Y607134D01*
X401070Y607120D01*
X400959Y607111D01*
X400849Y607105D01*
X400738Y607103D01*
X397563Y607103D01*
X408422Y602023D02*
X412232Y602023D01*
X412332Y602025D01*
X412431Y602031D01*
X412531Y602041D01*
X412629Y602054D01*
X412728Y602072D01*
X412825Y602093D01*
X412921Y602118D01*
X413017Y602147D01*
X413111Y602180D01*
X413204Y602216D01*
X413295Y602256D01*
X413385Y602300D01*
X413473Y602347D01*
X413559Y602397D01*
X413643Y602451D01*
X413725Y602508D01*
X413804Y602568D01*
X413882Y602632D01*
X413956Y602698D01*
X414028Y602767D01*
X414097Y602839D01*
X414163Y602913D01*
X414227Y602991D01*
X414287Y603070D01*
X414344Y603152D01*
X414398Y603236D01*
X414448Y603322D01*
X414495Y603410D01*
X414539Y603500D01*
X414579Y603591D01*
X414615Y603684D01*
X414648Y603778D01*
X414677Y603874D01*
X414702Y603970D01*
X414723Y604067D01*
X414741Y604166D01*
X414754Y604264D01*
X414764Y604364D01*
X414770Y604463D01*
X414772Y604563D01*
X414772Y605833D01*
X414770Y605933D01*
X414764Y606032D01*
X414754Y606132D01*
X414741Y606230D01*
X414723Y606329D01*
X414702Y606426D01*
X414677Y606522D01*
X414648Y606618D01*
X414615Y606712D01*
X414579Y606805D01*
X414539Y606896D01*
X414495Y606986D01*
X414448Y607074D01*
X414398Y607160D01*
X414344Y607244D01*
X414287Y607326D01*
X414227Y607405D01*
X414163Y607483D01*
X414097Y607557D01*
X414028Y607629D01*
X413956Y607698D01*
X413882Y607764D01*
X413804Y607828D01*
X413725Y607888D01*
X413643Y607945D01*
X413559Y607999D01*
X413473Y608049D01*
X413385Y608096D01*
X413295Y608140D01*
X413204Y608180D01*
X413111Y608216D01*
X413017Y608249D01*
X412921Y608278D01*
X412825Y608303D01*
X412728Y608324D01*
X412629Y608342D01*
X412531Y608355D01*
X412431Y608365D01*
X412332Y608371D01*
X412232Y608373D01*
X408422Y608373D01*
X408422Y613453D01*
X414772Y613453D01*
D12*
X291800Y490700D02*
X154800Y490700D01*
X154800Y700950D02*
X291800Y700950D01*
X291800Y548550D02*
X291800Y490700D01*
X291800Y579600D02*
X291800Y700950D01*
X154800Y700950D02*
X154800Y579600D01*
X154800Y548550D02*
X154800Y490700D01*
D13*
X267722Y473558D02*
X275511Y485242D01*
X267722Y485242D02*
X275511Y473558D01*
X279801Y482646D02*
X283046Y485242D01*
X283046Y473558D01*
X279801Y473558D02*
X286292Y473558D01*
D10*
X127400Y315550D02*
X127400Y302850D01*
X121050Y296500D01*
X108350Y296500D01*
X102000Y302850D01*
X121050Y296500D02*
X127400Y290150D01*
X127400Y277450D01*
X121050Y271100D01*
X108350Y271100D01*
X102000Y277450D01*
X102000Y290150D01*
X108350Y296500D01*
X127400Y340950D02*
X121050Y347300D01*
X127400Y340950D02*
X127400Y328250D01*
X121050Y321900D01*
X108350Y321900D01*
X102000Y328250D01*
X102000Y340950D01*
X108350Y347300D01*
X121050Y321900D02*
X127400Y315550D01*
X108350Y321900D02*
X102000Y315550D01*
X102000Y302850D01*
X127400Y379050D02*
X127400Y391750D01*
X127400Y379050D02*
X121050Y372700D01*
X108350Y372700D01*
X102000Y379050D01*
X121050Y372700D02*
X127400Y366350D01*
X127400Y353650D01*
X121050Y347300D01*
X108350Y347300D01*
X102000Y353650D01*
X102000Y366350D01*
X108350Y372700D01*
X108350Y398100D02*
X121050Y398100D01*
X127400Y391750D01*
X108350Y398100D02*
X102000Y391750D01*
X102000Y379050D01*
X127400Y264750D02*
X127400Y252050D01*
X121050Y245700D01*
X108350Y245700D01*
X102000Y252050D01*
X121050Y271100D02*
X127400Y264750D01*
X108350Y271100D02*
X102000Y264750D01*
X102000Y252050D01*
D11*
X133623Y375038D02*
X142513Y375038D01*
X142613Y375036D01*
X142712Y375030D01*
X142812Y375020D01*
X142910Y375007D01*
X143009Y374989D01*
X143106Y374968D01*
X143202Y374943D01*
X143298Y374914D01*
X143392Y374881D01*
X143485Y374845D01*
X143576Y374805D01*
X143666Y374761D01*
X143754Y374714D01*
X143840Y374664D01*
X143924Y374610D01*
X144006Y374553D01*
X144085Y374493D01*
X144163Y374429D01*
X144237Y374363D01*
X144309Y374294D01*
X144378Y374222D01*
X144444Y374148D01*
X144508Y374070D01*
X144568Y373991D01*
X144625Y373909D01*
X144679Y373825D01*
X144729Y373739D01*
X144776Y373651D01*
X144820Y373561D01*
X144860Y373470D01*
X144896Y373377D01*
X144929Y373283D01*
X144958Y373187D01*
X144983Y373091D01*
X145004Y372994D01*
X145022Y372895D01*
X145035Y372797D01*
X145045Y372697D01*
X145051Y372598D01*
X145053Y372498D01*
X145053Y371228D01*
X145053Y381019D02*
X133623Y381019D01*
X133623Y384194D01*
X133625Y384305D01*
X133631Y384415D01*
X133640Y384526D01*
X133654Y384636D01*
X133671Y384745D01*
X133692Y384854D01*
X133717Y384962D01*
X133746Y385069D01*
X133778Y385175D01*
X133814Y385280D01*
X133854Y385383D01*
X133897Y385485D01*
X133944Y385586D01*
X133995Y385685D01*
X134048Y385782D01*
X134105Y385876D01*
X134166Y385969D01*
X134229Y386060D01*
X134296Y386149D01*
X134366Y386235D01*
X134439Y386318D01*
X134514Y386400D01*
X134592Y386478D01*
X134674Y386553D01*
X134757Y386626D01*
X134843Y386696D01*
X134932Y386763D01*
X135023Y386826D01*
X135116Y386887D01*
X135211Y386944D01*
X135307Y386997D01*
X135406Y387048D01*
X135507Y387095D01*
X135609Y387138D01*
X135712Y387178D01*
X135817Y387214D01*
X135923Y387246D01*
X136030Y387275D01*
X136138Y387300D01*
X136247Y387321D01*
X136356Y387338D01*
X136466Y387352D01*
X136577Y387361D01*
X136687Y387367D01*
X136798Y387369D01*
X136909Y387367D01*
X137019Y387361D01*
X137130Y387352D01*
X137240Y387338D01*
X137349Y387321D01*
X137458Y387300D01*
X137566Y387275D01*
X137673Y387246D01*
X137779Y387214D01*
X137884Y387178D01*
X137987Y387138D01*
X138089Y387095D01*
X138190Y387048D01*
X138289Y386997D01*
X138386Y386944D01*
X138480Y386887D01*
X138573Y386826D01*
X138664Y386763D01*
X138753Y386696D01*
X138839Y386626D01*
X138922Y386553D01*
X139004Y386478D01*
X139082Y386400D01*
X139157Y386318D01*
X139230Y386235D01*
X139300Y386149D01*
X139367Y386060D01*
X139430Y385969D01*
X139491Y385876D01*
X139548Y385782D01*
X139601Y385685D01*
X139652Y385586D01*
X139699Y385485D01*
X139742Y385383D01*
X139782Y385280D01*
X139818Y385175D01*
X139850Y385069D01*
X139879Y384962D01*
X139904Y384854D01*
X139925Y384745D01*
X139942Y384636D01*
X139956Y384526D01*
X139965Y384415D01*
X139971Y384305D01*
X139973Y384194D01*
X139973Y381019D01*
X138703Y391877D02*
X138703Y395687D01*
X138705Y395787D01*
X138711Y395886D01*
X138721Y395986D01*
X138734Y396084D01*
X138752Y396183D01*
X138773Y396280D01*
X138798Y396376D01*
X138827Y396472D01*
X138860Y396566D01*
X138896Y396659D01*
X138936Y396750D01*
X138980Y396840D01*
X139027Y396928D01*
X139077Y397014D01*
X139131Y397098D01*
X139188Y397180D01*
X139248Y397259D01*
X139312Y397337D01*
X139378Y397411D01*
X139447Y397483D01*
X139519Y397552D01*
X139593Y397618D01*
X139671Y397682D01*
X139750Y397742D01*
X139832Y397799D01*
X139916Y397853D01*
X140002Y397903D01*
X140090Y397950D01*
X140180Y397994D01*
X140271Y398034D01*
X140364Y398070D01*
X140458Y398103D01*
X140554Y398132D01*
X140650Y398157D01*
X140747Y398178D01*
X140846Y398196D01*
X140944Y398209D01*
X141044Y398219D01*
X141143Y398225D01*
X141243Y398227D01*
X141878Y398227D01*
X141989Y398225D01*
X142099Y398219D01*
X142210Y398210D01*
X142320Y398196D01*
X142429Y398179D01*
X142538Y398158D01*
X142646Y398133D01*
X142753Y398104D01*
X142859Y398072D01*
X142964Y398036D01*
X143067Y397996D01*
X143169Y397953D01*
X143270Y397906D01*
X143369Y397855D01*
X143466Y397802D01*
X143560Y397745D01*
X143653Y397684D01*
X143744Y397621D01*
X143833Y397554D01*
X143919Y397484D01*
X144002Y397411D01*
X144084Y397336D01*
X144162Y397258D01*
X144237Y397176D01*
X144310Y397093D01*
X144380Y397007D01*
X144447Y396918D01*
X144510Y396827D01*
X144571Y396734D01*
X144628Y396639D01*
X144681Y396543D01*
X144732Y396444D01*
X144779Y396343D01*
X144822Y396241D01*
X144862Y396138D01*
X144898Y396033D01*
X144930Y395927D01*
X144959Y395820D01*
X144984Y395712D01*
X145005Y395603D01*
X145022Y395494D01*
X145036Y395384D01*
X145045Y395273D01*
X145051Y395163D01*
X145053Y395052D01*
X145051Y394941D01*
X145045Y394831D01*
X145036Y394720D01*
X145022Y394610D01*
X145005Y394501D01*
X144984Y394392D01*
X144959Y394284D01*
X144930Y394177D01*
X144898Y394071D01*
X144862Y393966D01*
X144822Y393863D01*
X144779Y393761D01*
X144732Y393660D01*
X144681Y393561D01*
X144628Y393464D01*
X144571Y393370D01*
X144510Y393277D01*
X144447Y393186D01*
X144380Y393097D01*
X144310Y393011D01*
X144237Y392928D01*
X144162Y392846D01*
X144084Y392768D01*
X144002Y392693D01*
X143919Y392620D01*
X143833Y392550D01*
X143744Y392483D01*
X143653Y392420D01*
X143560Y392359D01*
X143465Y392302D01*
X143369Y392249D01*
X143270Y392198D01*
X143169Y392151D01*
X143067Y392108D01*
X142964Y392068D01*
X142859Y392032D01*
X142753Y392000D01*
X142646Y391971D01*
X142538Y391946D01*
X142429Y391925D01*
X142320Y391908D01*
X142210Y391894D01*
X142099Y391885D01*
X141989Y391879D01*
X141878Y391877D01*
X138703Y391877D01*
X138563Y391879D01*
X138423Y391885D01*
X138283Y391894D01*
X138144Y391908D01*
X138005Y391925D01*
X137867Y391946D01*
X137729Y391971D01*
X137592Y392000D01*
X137456Y392032D01*
X137321Y392069D01*
X137187Y392109D01*
X137054Y392152D01*
X136922Y392200D01*
X136791Y392250D01*
X136662Y392305D01*
X136535Y392363D01*
X136409Y392424D01*
X136285Y392489D01*
X136163Y392558D01*
X136043Y392629D01*
X135925Y392704D01*
X135808Y392782D01*
X135694Y392864D01*
X135583Y392948D01*
X135474Y393036D01*
X135367Y393126D01*
X135262Y393220D01*
X135161Y393316D01*
X135062Y393415D01*
X134966Y393516D01*
X134872Y393621D01*
X134782Y393728D01*
X134694Y393837D01*
X134610Y393948D01*
X134528Y394062D01*
X134450Y394179D01*
X134375Y394297D01*
X134304Y394417D01*
X134235Y394539D01*
X134170Y394663D01*
X134109Y394789D01*
X134051Y394916D01*
X133996Y395045D01*
X133946Y395176D01*
X133898Y395308D01*
X133855Y395441D01*
X133815Y395575D01*
X133778Y395710D01*
X133746Y395846D01*
X133717Y395983D01*
X133692Y396121D01*
X133671Y396259D01*
X133654Y396398D01*
X133640Y396537D01*
X133631Y396677D01*
X133625Y396817D01*
X133623Y396957D01*
M02*
